<svg width="40" height="22" viewBox="0 0 40 22" fill="none" xmlns="http://www.w3.org/2000/svg">
<path d="M20.6445 0.994141L19.5898 20.8574L11.9141 21.5605L7.8125 10.9258L7.16797 21.7656H0.576172L1.10352 0.994141L8.42773 0.642578L13.4961 11.1895L13.7305 1.22852L20.6445 0.994141ZM39.7461 11.6582C39.7461 12.5469 39.6436 13.4062 39.4385 14.2363C39.2334 15.0566 38.9355 15.8281 38.5449 16.5508C38.1641 17.2734 37.6953 17.9375 37.1387 18.543C36.5918 19.1387 35.9717 19.6514 35.2783 20.0811C34.5947 20.5107 33.8477 20.8477 33.0371 21.0918C32.2266 21.3262 31.3672 21.4434 30.459 21.4434C29.5801 21.4434 28.7402 21.3311 27.9395 21.1064C27.1484 20.8818 26.4062 20.5693 25.7129 20.1689C25.0195 19.7588 24.3896 19.2705 23.8232 18.7041C23.2666 18.1279 22.7881 17.4932 22.3877 16.7998C21.9971 16.0967 21.6895 15.3447 21.4648 14.5439C21.25 13.7432 21.1426 12.9082 21.1426 12.0391C21.1426 11.1895 21.2451 10.3594 21.4502 9.54883C21.6553 8.72852 21.9482 7.95703 22.3291 7.23438C22.7197 6.51172 23.1885 5.84766 23.7354 5.24219C24.2822 4.63672 24.8926 4.11426 25.5664 3.6748C26.25 3.23535 26.9873 2.89355 27.7783 2.64941C28.5693 2.40527 29.4043 2.2832 30.2832 2.2832C31.6992 2.2832 32.9883 2.50293 34.1504 2.94238C35.3223 3.38184 36.3184 4.01172 37.1387 4.83203C37.9688 5.64258 38.6084 6.62891 39.0576 7.79102C39.5166 8.94336 39.7461 10.2324 39.7461 11.6582ZM33.2422 12.0391C33.2422 11.6191 33.1787 11.2139 33.0518 10.8232C32.9346 10.4229 32.7588 10.0713 32.5244 9.76855C32.29 9.45605 31.9971 9.20703 31.6455 9.02148C31.3037 8.82617 30.9082 8.72852 30.459 8.72852C30 8.72852 29.5898 8.81152 29.2285 8.97754C28.8672 9.14355 28.5547 9.37305 28.291 9.66602C28.0371 9.94922 27.8418 10.2861 27.7051 10.6768C27.5684 11.0576 27.5 11.4629 27.5 11.8926C27.5 12.3027 27.5586 12.7129 27.6758 13.123C27.793 13.5332 27.9688 13.9043 28.2031 14.2363C28.4375 14.5684 28.7256 14.8369 29.0674 15.042C29.4189 15.2471 29.8242 15.3496 30.2832 15.3496C30.7422 15.3496 31.1523 15.2617 31.5137 15.0859C31.8848 14.9004 32.1973 14.6562 32.4512 14.3535C32.7051 14.041 32.9004 13.6846 33.0371 13.2842C33.1738 12.8838 33.2422 12.4688 33.2422 12.0391Z" fill="white"/>
</svg>
