<svg width="234" height="134" viewBox="0 0 234 134" fill="none" xmlns="http://www.w3.org/2000/svg">
<path d="M4.87641 10.336C4.87641 8.72 4.98041 7.352 5.18841 6.232C5.41241 5.112 5.70041 4.232 6.05241 3.592C6.40441 2.952 6.88441 2.464 7.49241 2.128C8.11641 1.776 8.73241 1.552 9.34041 1.456C9.94841 1.36 10.7164 1.312 11.6444 1.312C12.4284 1.312 13.0844 1.344 13.6124 1.408C14.1404 1.472 14.6844 1.608 15.2444 1.816C15.8044 2.024 16.2604 2.336 16.6124 2.752C16.9804 3.152 17.3084 3.68 17.5964 4.336C17.9004 4.992 18.1164 5.824 18.2444 6.832C18.3884 7.824 18.4604 8.992 18.4604 10.336C18.4604 11.856 18.3564 13.152 18.1484 14.224C17.9404 15.28 17.6604 16.128 17.3084 16.768C16.9724 17.408 16.5004 17.904 15.8924 18.256C15.2844 18.592 14.6604 18.816 14.0204 18.928C13.3804 19.04 12.5884 19.096 11.6444 19.096C10.8444 19.096 10.1724 19.064 9.62841 19C9.08441 18.936 8.53241 18.808 7.97241 18.616C7.41241 18.408 6.96441 18.112 6.62841 17.728C6.29241 17.328 5.98041 16.808 5.69241 16.168C5.40441 15.528 5.19641 14.728 5.06841 13.768C4.94041 12.792 4.87641 11.648 4.87641 10.336ZM6.65241 10.336C6.65241 11.888 6.72441 13.12 6.86841 14.032C7.02841 14.944 7.31641 15.648 7.73241 16.144C8.16441 16.64 8.66841 16.96 9.24441 17.104C9.82041 17.248 10.6204 17.32 11.6444 17.32C12.6524 17.32 13.4444 17.24 14.0204 17.08C14.6124 16.904 15.1244 16.568 15.5564 16.072C15.9884 15.56 16.2844 14.856 16.4444 13.96C16.6044 13.048 16.6844 11.84 16.6844 10.336C16.6844 9.536 16.6604 8.824 16.6124 8.2C16.5644 7.56 16.5004 7 16.4204 6.52C16.3564 6.04 16.2444 5.624 16.0844 5.272C15.9404 4.904 15.7964 4.6 15.6524 4.36C15.5244 4.12 15.3324 3.92 15.0764 3.76C14.8204 3.584 14.5964 3.456 14.4044 3.376C14.2284 3.28 13.9564 3.216 13.5884 3.184C13.2204 3.136 12.9164 3.112 12.6764 3.112C12.4364 3.096 12.0924 3.088 11.6444 3.088C11.1964 3.088 10.8524 3.096 10.6124 3.112C10.3884 3.112 10.0924 3.136 9.72441 3.184C9.37241 3.216 9.10041 3.28 8.90841 3.376C8.73241 3.456 8.51641 3.584 8.26041 3.76C8.00441 3.92 7.81241 4.12 7.68441 4.36C7.55641 4.6 7.41241 4.904 7.25241 5.272C7.09241 5.624 6.97241 6.04 6.89241 6.52C6.82841 7 6.77241 7.56 6.72441 8.2C6.67641 8.84 6.65241 9.552 6.65241 10.336ZM10.9244 19.792H12.1724C12.5884 20.08 12.9804 20.288 13.3484 20.416C13.7324 20.56 14.1084 20.632 14.4764 20.632C14.9724 20.632 15.5484 20.512 16.2044 20.272V22.192C15.7884 22.352 15.3084 22.432 14.7644 22.432C14.3484 22.432 13.9324 22.376 13.5164 22.264C13.1004 22.168 12.7084 22.016 12.3404 21.808C11.9724 21.6 11.6604 21.32 11.4044 20.968C11.1484 20.616 10.9884 20.224 10.9244 19.792ZM20.7352 15.136V6.256H22.5112V15.136C22.5112 15.888 22.7112 16.464 23.1112 16.864C23.5112 17.248 24.0312 17.44 24.6712 17.44C25.2792 17.44 25.8552 17.376 26.3992 17.248C26.9432 17.12 27.3752 16.992 27.6952 16.864C28.0312 16.72 28.5912 16.456 29.3752 16.072V6.256H31.1512V19H29.9032L29.3752 17.512C29.3272 17.528 29.1512 17.632 28.8472 17.824C28.5432 18 28.3512 18.104 28.2712 18.136C28.2072 18.168 28.0392 18.264 27.7672 18.424C27.4952 18.568 27.3032 18.656 27.1912 18.688C27.0792 18.72 26.8952 18.784 26.6392 18.88C26.3832 18.976 26.1672 19.04 25.9912 19.072C25.8312 19.104 25.6312 19.136 25.3912 19.168C25.1512 19.2 24.9112 19.216 24.6712 19.216C23.4552 19.216 22.4952 18.816 21.7912 18.016C21.0872 17.216 20.7352 16.256 20.7352 15.136ZM33.7898 4.192V2.896C33.7898 2.496 33.9818 2.296 34.3658 2.296H35.5658C35.9338 2.296 36.1178 2.496 36.1178 2.896V4.192C36.1178 4.56 35.9338 4.744 35.5658 4.744H34.3658C33.9818 4.744 33.7898 4.56 33.7898 4.192ZM34.0298 19V6.256H35.8058V19H34.0298ZM38.0442 8.032V6.256H47.5482V8.032L40.7322 17.2H47.5482C47.5482 17.2 47.5482 17.36 47.5482 17.68C47.5482 17.824 47.5482 18.008 47.5482 18.232C47.5482 18.456 47.5482 18.632 47.5482 18.76V18.976H38.4042V17.2L45.3402 8.032H38.0442ZM48.9895 8.032V6.256H58.4935V8.032L51.6775 17.2H58.4935C58.4935 17.2 58.4935 17.36 58.4935 17.68C58.4935 17.824 58.4935 18.008 58.4935 18.232C58.4935 18.456 58.4935 18.632 58.4935 18.76V18.976H49.3495V17.2L56.2855 8.032H48.9895ZM68.5795 7.144V5.56C68.5795 3.944 68.9955 2.832 69.8275 2.224C70.6595 1.6 71.8275 1.288 73.3315 1.288C74.4195 1.288 76.4195 1.48 79.3315 1.864V3.304L73.3315 3.064C73.1395 3.048 72.9715 3.04 72.8275 3.04C72.0115 3.04 71.3955 3.216 70.9795 3.568C70.5635 3.904 70.3555 4.568 70.3555 5.56V7.144C70.3555 8.136 70.5475 8.776 70.9315 9.064C71.3315 9.352 71.9555 9.496 72.8035 9.496H76.2115C78.7075 9.496 79.9555 10.872 79.9555 13.624V15.256C79.9555 16.072 79.8195 16.752 79.5475 17.296C79.2755 17.84 78.8915 18.248 78.3955 18.52C77.8995 18.776 77.3955 18.952 76.8835 19.048C76.3715 19.144 75.7795 19.192 75.1075 19.192C74.5475 19.192 73.5555 19.12 72.1315 18.976C70.7235 18.832 69.7155 18.704 69.1075 18.592V17.152C70.8675 17.328 72.8675 17.416 75.1075 17.416C77.1555 17.416 78.1795 16.696 78.1795 15.256V13.624C78.1795 12.872 78.0355 12.296 77.7475 11.896C77.4595 11.48 76.9475 11.272 76.2115 11.272H72.8515C71.9395 11.272 71.1795 11.16 70.5715 10.936C69.9795 10.712 69.5475 10.384 69.2755 9.952C69.0035 9.52 68.8195 9.096 68.7235 8.68C68.6275 8.248 68.5795 7.736 68.5795 7.144ZM82.2352 15.136V6.256H84.0112V15.136C84.0112 15.888 84.2112 16.464 84.6112 16.864C85.0112 17.248 85.5312 17.44 86.1712 17.44C86.7792 17.44 87.3552 17.376 87.8992 17.248C88.4432 17.12 88.8752 16.992 89.1952 16.864C89.5312 16.72 90.0912 16.456 90.8752 16.072V6.256H92.6512V19H91.4032L90.8752 17.512C90.8272 17.528 90.6512 17.632 90.3472 17.824C90.0432 18 89.8512 18.104 89.7712 18.136C89.7072 18.168 89.5392 18.264 89.2672 18.424C88.9952 18.568 88.8032 18.656 88.6912 18.688C88.5792 18.72 88.3952 18.784 88.1392 18.88C87.8832 18.976 87.6672 19.04 87.4912 19.072C87.3312 19.104 87.1312 19.136 86.8912 19.168C86.6512 19.2 86.4112 19.216 86.1712 19.216C84.9552 19.216 83.9952 18.816 83.2912 18.016C82.5872 17.216 82.2352 16.256 82.2352 15.136ZM95.2898 12.688C95.2898 11.76 95.3378 10.952 95.4338 10.264C95.5458 9.56 95.7378 8.872 96.0098 8.2C96.2978 7.512 96.7298 6.984 97.3058 6.616C97.8978 6.248 98.6258 6.064 99.4898 6.064C100.082 6.064 100.834 6.152 101.746 6.328C102.658 6.504 103.474 6.736 104.194 7.024V0.159999H105.946V19H104.674L104.194 17.584C103.794 17.872 103.09 18.208 102.082 18.592C101.09 18.96 100.226 19.144 99.4898 19.144C98.6578 19.144 97.9538 18.952 97.3778 18.568C96.8018 18.184 96.3698 17.664 96.0818 17.008C95.7938 16.336 95.5858 15.656 95.4578 14.968C95.3458 14.264 95.2898 13.504 95.2898 12.688ZM97.0658 12.688C97.0658 15.808 97.8738 17.368 99.4898 17.368C100.818 17.368 102.386 17 104.194 16.264V8.464C102.594 8.048 101.026 7.84 99.4898 7.84C98.6578 7.84 98.0418 8.184 97.6418 8.872C97.2578 9.56 97.0658 10.832 97.0658 12.688ZM108.339 15.976V14.512C108.339 13.536 108.619 12.76 109.179 12.184C109.755 11.608 110.539 11.32 111.531 11.32C113.115 11.32 114.427 11.32 115.467 11.32C115.899 11.32 116.235 11.32 116.475 11.32C116.731 11.32 116.859 11.32 116.859 11.32C116.859 10.856 116.859 10.464 116.859 10.144C116.859 10.08 116.859 10.024 116.859 9.976C116.859 9.928 116.859 9.888 116.859 9.856C116.859 9.808 116.859 9.776 116.859 9.76C116.859 9.728 116.859 9.712 116.859 9.712C116.859 8.4 116.203 7.744 114.891 7.744C113.451 7.744 111.403 7.84 108.747 8.032V6.736C110.363 6.288 112.435 6.048 114.963 6.016C114.979 6.016 115.003 6.016 115.035 6.016C116.091 6.016 116.955 6.328 117.627 6.952C118.299 7.56 118.635 8.48 118.635 9.712V19H117.315L116.859 17.464L116.499 17.632C116.275 17.744 115.971 17.888 115.587 18.064C115.203 18.224 114.787 18.392 114.339 18.568C113.891 18.728 113.411 18.864 112.899 18.976C112.387 19.088 111.931 19.144 111.531 19.144C110.619 19.144 109.859 18.864 109.251 18.304C108.643 17.744 108.339 16.968 108.339 15.976ZM110.115 15.856C110.115 16.864 110.587 17.368 111.531 17.368C112.107 17.368 112.835 17.264 113.715 17.056C114.611 16.848 115.363 16.648 115.971 16.456L116.859 16.144V12.712L111.531 13.096C111.051 13.144 110.691 13.312 110.451 13.6C110.227 13.888 110.115 14.24 110.115 14.656V15.856ZM121.264 19V0.183999H123.04V7.744C123.088 7.728 123.264 7.632 123.568 7.456C123.872 7.264 124.056 7.152 124.12 7.12C124.2 7.088 124.376 7 124.648 6.856C124.92 6.696 125.112 6.6 125.224 6.568C125.336 6.536 125.52 6.472 125.776 6.376C126.032 6.28 126.24 6.216 126.4 6.184C126.576 6.152 126.784 6.12 127.024 6.088C127.264 6.056 127.504 6.04 127.744 6.04C128.96 6.04 129.92 6.44 130.624 7.24C131.328 8.04 131.68 9 131.68 10.12V19H129.904V10.12C129.904 9.352 129.704 8.776 129.304 8.392C128.92 8.008 128.4 7.816 127.744 7.816C127.136 7.816 126.56 7.88 126.016 8.008C125.472 8.136 125.032 8.272 124.696 8.416C124.376 8.544 123.824 8.8 123.04 9.184V19H121.264ZM142.244 7.144V5.56C142.244 3.944 142.66 2.832 143.492 2.224C144.324 1.6 145.492 1.288 146.996 1.288C148.084 1.288 150.084 1.48 152.996 1.864V3.304L146.996 3.064C146.804 3.048 146.636 3.04 146.492 3.04C145.676 3.04 145.06 3.216 144.644 3.568C144.228 3.904 144.02 4.568 144.02 5.56V7.144C144.02 8.136 144.212 8.776 144.596 9.064C144.996 9.352 145.62 9.496 146.468 9.496H149.876C152.372 9.496 153.62 10.872 153.62 13.624V15.256C153.62 16.072 153.484 16.752 153.212 17.296C152.94 17.84 152.556 18.248 152.06 18.52C151.564 18.776 151.06 18.952 150.548 19.048C150.036 19.144 149.444 19.192 148.772 19.192C148.212 19.192 147.22 19.12 145.796 18.976C144.388 18.832 143.38 18.704 142.772 18.592V17.152C144.532 17.328 146.532 17.416 148.772 17.416C150.82 17.416 151.844 16.696 151.844 15.256V13.624C151.844 12.872 151.7 12.296 151.412 11.896C151.124 11.48 150.612 11.272 149.876 11.272H146.516C145.604 11.272 144.844 11.16 144.236 10.936C143.644 10.712 143.212 10.384 142.94 9.952C142.668 9.52 142.484 9.096 142.388 8.68C142.292 8.248 142.244 7.736 142.244 7.144ZM155.899 12.568C155.899 11.16 155.995 10.032 156.187 9.184C156.379 8.32 156.723 7.672 157.219 7.24C157.731 6.792 158.291 6.504 158.899 6.376C159.523 6.232 160.379 6.16 161.467 6.16C162.347 6.16 163.035 6.2 163.531 6.28C164.027 6.36 164.515 6.544 164.995 6.832C165.475 7.12 165.819 7.576 166.027 8.2C166.235 8.824 166.339 9.648 166.339 10.672C166.339 12.624 165.243 13.6 163.051 13.6H157.675C157.675 15.088 157.843 16.088 158.179 16.6C158.515 17.096 159.155 17.344 160.099 17.344C160.211 17.344 160.379 17.344 160.603 17.344C160.827 17.344 160.995 17.344 161.107 17.344C163.347 17.344 165.011 17.264 166.099 17.104V18.448C164.515 18.896 162.515 19.12 160.099 19.12C158.483 19.12 157.379 18.656 156.787 17.728C156.195 16.8 155.899 15.08 155.899 12.568ZM157.675 11.848H163.051C164.059 11.848 164.563 11.456 164.563 10.672C164.563 9.44 164.379 8.68 164.011 8.392C163.659 8.088 162.819 7.936 161.491 7.936C160.931 7.936 160.515 7.944 160.243 7.96C159.987 7.976 159.675 8.024 159.307 8.104C158.955 8.168 158.699 8.28 158.539 8.44C158.395 8.6 158.235 8.824 158.059 9.112C157.899 9.4 157.795 9.768 157.747 10.216C157.699 10.664 157.675 11.208 157.675 11.848ZM168.749 14.464V0.207999H170.525V14.464C170.525 15.44 170.637 16.12 170.861 16.504C171.085 16.872 171.429 17.112 171.893 17.224C173.205 17.56 173.917 17.728 174.029 17.728V19H171.917C169.805 19 168.749 17.488 168.749 14.464ZM175.704 12.568C175.704 11.16 175.8 10.032 175.992 9.184C176.184 8.32 176.528 7.672 177.024 7.24C177.536 6.792 178.096 6.504 178.704 6.376C179.328 6.232 180.184 6.16 181.272 6.16C182.152 6.16 182.84 6.2 183.336 6.28C183.832 6.36 184.32 6.544 184.8 6.832C185.28 7.12 185.624 7.576 185.832 8.2C186.04 8.824 186.144 9.648 186.144 10.672C186.144 12.624 185.048 13.6 182.856 13.6H177.48C177.48 15.088 177.648 16.088 177.984 16.6C178.32 17.096 178.96 17.344 179.904 17.344C180.016 17.344 180.184 17.344 180.408 17.344C180.632 17.344 180.8 17.344 180.912 17.344C183.152 17.344 184.816 17.264 185.904 17.104V18.448C184.32 18.896 182.32 19.12 179.904 19.12C178.288 19.12 177.184 18.656 176.592 17.728C176 16.8 175.704 15.08 175.704 12.568ZM177.48 11.848H182.856C183.864 11.848 184.368 11.456 184.368 10.672C184.368 9.44 184.184 8.68 183.816 8.392C183.464 8.088 182.624 7.936 181.296 7.936C180.736 7.936 180.32 7.944 180.048 7.96C179.792 7.976 179.48 8.024 179.112 8.104C178.76 8.168 178.504 8.28 178.344 8.44C178.2 8.6 178.04 8.824 177.864 9.112C177.704 9.4 177.6 9.768 177.552 10.216C177.504 10.664 177.48 11.208 177.48 11.848ZM188.073 10.408V9.304C188.073 8.264 188.329 7.48 188.841 6.952C189.353 6.408 190.201 6.136 191.385 6.136C192.905 6.136 194.993 6.264 197.649 6.52V7.888H191.385C191.017 7.888 190.721 7.92 190.497 7.984C190.273 8.048 190.113 8.16 190.017 8.32C189.937 8.464 189.889 8.6 189.873 8.728C189.857 8.856 189.849 9.048 189.849 9.304V10.408C189.849 10.728 189.881 10.984 189.945 11.176C190.025 11.368 190.145 11.504 190.305 11.584C190.465 11.664 190.617 11.72 190.761 11.752C190.905 11.768 191.113 11.776 191.385 11.776H195.177C196.185 11.776 196.953 12.064 197.481 12.64C198.025 13.2 198.297 13.944 198.297 14.872V16.048C198.297 17.232 198.009 18.04 197.433 18.472C196.857 18.904 196.105 19.12 195.177 19.12C193.689 19.12 191.497 18.968 188.601 18.664V17.344H195.177C195.209 17.344 195.241 17.344 195.273 17.344C195.385 17.344 195.497 17.336 195.609 17.32C195.721 17.288 195.849 17.232 195.993 17.152C196.153 17.072 196.281 16.936 196.377 16.744C196.473 16.552 196.521 16.32 196.521 16.048V14.872C196.521 14.424 196.417 14.096 196.209 13.888C196.017 13.664 195.673 13.552 195.177 13.552H191.385C190.217 13.552 189.369 13.328 188.841 12.88C188.329 12.432 188.073 11.608 188.073 10.408ZM200.214 15.976V14.512C200.214 13.536 200.494 12.76 201.054 12.184C201.63 11.608 202.414 11.32 203.406 11.32C204.99 11.32 206.302 11.32 207.342 11.32C207.774 11.32 208.11 11.32 208.35 11.32C208.606 11.32 208.734 11.32 208.734 11.32C208.734 10.856 208.734 10.464 208.734 10.144C208.734 10.08 208.734 10.024 208.734 9.976C208.734 9.928 208.734 9.888 208.734 9.856C208.734 9.808 208.734 9.776 208.734 9.76C208.734 9.728 208.734 9.712 208.734 9.712C208.734 8.4 208.078 7.744 206.766 7.744C205.326 7.744 203.278 7.84 200.622 8.032V6.736C202.238 6.288 204.31 6.048 206.838 6.016C206.854 6.016 206.878 6.016 206.91 6.016C207.966 6.016 208.83 6.328 209.502 6.952C210.174 7.56 210.51 8.48 210.51 9.712V19H209.19L208.734 17.464L208.374 17.632C208.15 17.744 207.846 17.888 207.462 18.064C207.078 18.224 206.662 18.392 206.214 18.568C205.766 18.728 205.286 18.864 204.774 18.976C204.262 19.088 203.806 19.144 203.406 19.144C202.494 19.144 201.734 18.864 201.126 18.304C200.518 17.744 200.214 16.968 200.214 15.976ZM201.99 15.856C201.99 16.864 202.462 17.368 203.406 17.368C203.982 17.368 204.71 17.264 205.59 17.056C206.486 16.848 207.238 16.648 207.846 16.456L208.734 16.144V12.712L203.406 13.096C202.926 13.144 202.566 13.312 202.326 13.6C202.102 13.888 201.99 14.24 201.99 14.656V15.856ZM212.899 4.192V2.896C212.899 2.496 213.091 2.296 213.475 2.296H214.675C215.043 2.296 215.227 2.496 215.227 2.896V4.192C215.227 4.56 215.043 4.744 214.675 4.744H213.475C213.091 4.744 212.899 4.56 212.899 4.192ZM213.139 19V6.256H214.915V19H213.139ZM226.206 18.448V17.08C226.206 16.68 226.398 16.48 226.782 16.48H228.102C228.47 16.48 228.654 16.68 228.654 17.08V18.448C228.654 18.816 228.47 19 228.102 19H226.782C226.398 19 226.206 18.816 226.206 18.448ZM226.35 1.456H228.486L228.318 14.296H226.518L226.35 1.456ZM6.55266 95L13.0087 77.432H14.7847L20.9527 95H18.8407L17.3287 90.104H10.3207L8.73666 95H6.55266ZM10.9687 88.328H16.7047L13.8727 80.144L10.9687 88.328ZM22.9908 95V77.432H30.2148C33.0148 77.432 34.4148 79.128 34.4148 82.52C34.4148 83.48 34.3188 84.304 34.1268 84.992C33.9508 85.68 33.7268 86.208 33.4548 86.576C33.1988 86.928 32.8628 87.208 32.4468 87.416C32.0308 87.608 31.6628 87.728 31.3428 87.776C31.0228 87.824 30.6468 87.848 30.2148 87.848C29.7508 87.848 28.7428 87.776 27.1908 87.632C25.6388 87.488 24.8308 87.4 24.7668 87.368V95H22.9908ZM24.7668 86.072H30.2148C30.9828 86.072 31.5748 85.84 31.9908 85.376C32.4068 84.912 32.6148 83.96 32.6148 82.52C32.5988 81.784 32.5108 81.176 32.3508 80.696C32.1908 80.216 31.9668 79.88 31.6788 79.688C31.4068 79.496 31.1668 79.376 30.9588 79.328C30.7508 79.264 30.5028 79.232 30.2148 79.232H24.7668V86.072ZM36.5761 95L43.0321 77.432H44.8081L50.9761 95H48.8641L47.3521 90.104H40.3441L38.7601 95H36.5761ZM40.9921 88.328H46.7281L43.8961 80.144L40.9921 88.328ZM53.4942 95V77.432H55.2702V85.304H57.2382L62.7582 77.432H64.9182L58.8702 86.192L64.9182 95H62.7582L57.2382 87.08H55.2942V95H53.4942ZM66.8339 95L73.2899 77.432H75.0659L81.2339 95H79.1219L77.6099 90.104H70.6019L69.0179 95H66.8339ZM71.2499 88.328H76.9859L74.1539 80.144L71.2499 88.328ZM83.752 95V77.432H85.528V85.616H93.928V77.432H95.704V95H93.928V87.392H85.528V95H83.752ZM106.021 95L112.477 77.432H114.253L120.421 95H118.309L116.797 90.104H109.789L108.205 95H106.021ZM110.437 88.328H116.173L113.341 80.144L110.437 88.328ZM122.94 95V77.432H124.764L134.124 91.688V77.432H135.9V95H134.124L124.74 80.744V95H122.94ZM139.252 95V77.432H145.78C146.82 77.432 147.724 77.632 148.492 78.032C149.276 78.416 149.884 78.904 150.316 79.496C150.748 80.088 151.1 80.8 151.372 81.632C151.644 82.464 151.82 83.248 151.9 83.984C151.98 84.704 152.02 85.472 152.02 86.288C152.02 87.12 151.948 87.936 151.804 88.736C151.676 89.52 151.452 90.296 151.132 91.064C150.828 91.832 150.444 92.504 149.98 93.08C149.516 93.656 148.924 94.12 148.204 94.472C147.484 94.824 146.676 95 145.78 95H139.252ZM141.028 93.152H145.78C146.788 93.152 147.636 92.832 148.324 92.192C149.012 91.536 149.5 90.712 149.788 89.72C150.092 88.712 150.244 87.56 150.244 86.264C150.244 83.784 149.86 81.992 149.092 80.888C148.34 79.768 147.236 79.208 145.78 79.208H141.028V93.152ZM154.185 95L160.641 77.432H162.417L168.585 95H166.473L164.961 90.104H157.953L156.369 95H154.185ZM158.601 88.328H164.337L161.505 80.144L158.601 88.328ZM178.308 95L179.46 77.432H181.908L186.588 92.048L191.124 77.432H193.548L194.892 95H193.116L192.036 80.648L187.524 95H185.7L181.044 80.648L180.084 95H178.308ZM197.287 95L203.743 77.432H205.519L211.687 95H209.575L208.063 90.104H201.055L199.471 95H197.287ZM201.703 88.328H207.439L204.607 80.144L201.703 88.328ZM214.205 87.32V77.432H215.981V87.32C215.981 87.96 216.005 88.544 216.053 89.072C216.101 89.6 216.157 90.064 216.221 90.464C216.301 90.848 216.405 91.192 216.533 91.496C216.677 91.8 216.813 92.056 216.941 92.264C217.069 92.456 217.237 92.624 217.445 92.768C217.669 92.912 217.869 93.024 218.045 93.104C218.221 93.168 218.453 93.224 218.741 93.272C219.029 93.304 219.277 93.328 219.485 93.344C219.709 93.344 219.997 93.344 220.349 93.344C220.381 93.344 220.413 93.344 220.445 93.344C220.493 93.344 220.541 93.344 220.589 93.344C220.637 93.344 220.677 93.344 220.709 93.344C221.045 93.344 221.309 93.344 221.501 93.344C221.693 93.328 221.941 93.304 222.245 93.272C222.549 93.24 222.789 93.192 222.965 93.128C223.141 93.048 223.349 92.944 223.589 92.816C223.829 92.672 224.021 92.504 224.165 92.312C224.309 92.104 224.461 91.848 224.621 91.544C224.781 91.24 224.901 90.896 224.981 90.512C225.077 90.112 225.149 89.648 225.197 89.12C225.261 88.576 225.293 87.976 225.293 87.32V77.432H227.093V87.32C227.093 88.808 226.949 90.072 226.661 91.112C226.389 92.136 226.069 92.904 225.701 93.416C225.349 93.928 224.837 94.32 224.165 94.592C223.509 94.864 222.965 95.016 222.533 95.048C222.101 95.096 221.493 95.12 220.709 95.12C220.677 95.12 220.637 95.12 220.589 95.12C220.557 95.12 220.525 95.12 220.493 95.12C220.461 95.12 220.421 95.12 220.373 95.12C220.325 95.12 220.285 95.12 220.253 95.12C219.709 95.12 219.269 95.112 218.933 95.096C218.597 95.08 218.189 95.024 217.709 94.928C217.229 94.816 216.845 94.664 216.557 94.472C216.269 94.264 215.957 93.976 215.621 93.608C215.285 93.224 215.021 92.76 214.829 92.216C214.653 91.656 214.501 90.968 214.373 90.152C214.261 89.32 214.205 88.376 214.205 87.32ZM0.804375 133L1.95638 115.432H4.40438L9.08438 130.048L13.6204 115.432H16.0444L17.3884 133H15.6124L14.5324 118.648L10.0204 133H8.19638L3.54038 118.648L2.58038 133H0.804375ZM20.6231 130.048V118.552C20.6231 117.48 20.8871 116.696 21.4151 116.2C21.9431 115.688 22.6231 115.432 23.4551 115.432C23.4871 115.432 23.5191 115.432 23.5511 115.432C23.5831 115.432 23.6151 115.432 23.6471 115.432L31.2311 115.816V117.208H23.6471C23.2631 117.208 22.9671 117.288 22.7591 117.448C22.5671 117.592 22.4551 117.744 22.4231 117.904C22.4071 118.048 22.3991 118.264 22.3991 118.552V123.352L30.2711 123.592V125.008L22.3991 125.248V130.048C22.3991 130.336 22.4391 130.576 22.5191 130.768C22.5991 130.944 22.7191 131.072 22.8791 131.152C23.0391 131.216 23.1751 131.256 23.2871 131.272C23.4151 131.288 23.5911 131.296 23.8151 131.296C23.8151 131.296 23.8231 131.296 23.8391 131.296C23.8551 131.296 23.8711 131.296 23.8871 131.296H31.2311V132.664L23.8871 133.072C23.8231 133.072 23.7591 133.072 23.6951 133.072C23.6311 133.088 23.5671 133.096 23.5031 133.096C23.1031 133.096 22.7431 133.056 22.4231 132.976C22.1031 132.88 21.7991 132.728 21.5111 132.52C21.2391 132.296 21.0231 131.976 20.8631 131.56C20.7031 131.144 20.6231 130.64 20.6231 130.048ZM34.2403 133V115.432H36.0643L45.4243 129.688V115.432H47.2003V133H45.4243L36.0403 118.744V133H34.2403ZM49.9528 124.168C49.9528 121.128 50.3608 118.88 51.1768 117.424C52.0088 115.968 53.5528 115.24 55.8088 115.24C57.5528 115.24 59.5048 115.44 61.6648 115.84V117.256H61.4488C61.3048 117.24 61.1128 117.224 60.8728 117.208C60.6328 117.192 60.3528 117.176 60.0328 117.16C59.7288 117.144 59.3928 117.128 59.0248 117.112C58.6568 117.096 58.2888 117.08 57.9208 117.064C57.5688 117.048 57.2008 117.04 56.8168 117.04C56.4488 117.024 56.1128 117.016 55.8088 117.016C54.7688 117.016 53.9608 117.216 53.3848 117.616C52.8248 118 52.4088 118.712 52.1368 119.752C51.8648 120.776 51.7288 122.264 51.7288 124.216C51.7288 128.984 53.0888 131.368 55.8088 131.368L61.6648 131.2V132.616C59.7768 132.968 57.8248 133.144 55.8088 133.144C51.9048 133.144 49.9528 130.152 49.9528 124.168ZM64.0678 124.336C64.0678 122.992 64.1398 121.824 64.2838 120.832C64.4278 119.824 64.6518 118.992 64.9558 118.336C65.2598 117.68 65.5878 117.152 65.9398 116.752C66.3078 116.336 66.7718 116.024 67.3318 115.816C67.8918 115.608 68.4358 115.472 68.9638 115.408C69.4918 115.344 70.1318 115.312 70.8838 115.312C71.5398 115.312 72.0998 115.336 72.5638 115.384C73.0438 115.432 73.5318 115.528 74.0278 115.672C74.5398 115.816 74.9638 116.016 75.2998 116.272C75.6358 116.528 75.9638 116.88 76.2838 117.328C76.6038 117.776 76.8518 118.32 77.0278 118.96C77.2198 119.584 77.3718 120.344 77.4838 121.24C77.5958 122.136 77.6518 123.168 77.6518 124.336C77.6518 125.856 77.5478 127.152 77.3398 128.224C77.1478 129.28 76.8758 130.128 76.5238 130.768C76.1878 131.408 75.7158 131.904 75.1078 132.256C74.5158 132.592 73.8998 132.816 73.2598 132.928C72.6198 133.04 71.8278 133.096 70.8838 133.096C70.0838 133.096 69.4118 133.064 68.8678 133C68.3238 132.936 67.7718 132.808 67.2118 132.616C66.6518 132.408 66.1958 132.112 65.8438 131.728C65.4918 131.328 65.1718 130.808 64.8838 130.168C64.5958 129.528 64.3878 128.728 64.2598 127.768C64.1318 126.792 64.0678 125.648 64.0678 124.336ZM65.8438 124.336C65.8438 125.888 65.9158 127.12 66.0598 128.032C66.2198 128.944 66.5158 129.648 66.9478 130.144C67.3958 130.64 67.9078 130.96 68.4838 131.104C69.0598 131.248 69.8598 131.32 70.8838 131.32C71.6838 131.32 72.3398 131.272 72.8518 131.176C73.3638 131.064 73.8278 130.872 74.2438 130.6C74.6598 130.312 74.9798 129.904 75.2038 129.376C75.4278 128.848 75.5958 128.184 75.7078 127.384C75.8198 126.568 75.8758 125.552 75.8758 124.336C75.8758 123.536 75.8518 122.824 75.8038 122.2C75.7558 121.56 75.6998 121 75.6358 120.52C75.5718 120.04 75.4598 119.624 75.2998 119.272C75.1398 118.904 74.9958 118.6 74.8678 118.36C74.7398 118.12 74.5478 117.92 74.2918 117.76C74.0358 117.584 73.8118 117.456 73.6198 117.376C73.4438 117.28 73.1718 117.216 72.8038 117.184C72.4518 117.136 72.1558 117.112 71.9158 117.112C71.6758 117.096 71.3318 117.088 70.8838 117.088C70.4358 117.088 70.0918 117.096 69.8518 117.112C69.6278 117.112 69.3318 117.136 68.9638 117.184C68.6118 117.216 68.3398 117.28 68.1478 117.376C67.9558 117.456 67.7318 117.584 67.4758 117.76C67.2198 117.92 67.0198 118.12 66.8758 118.36C66.7478 118.6 66.6038 118.904 66.4438 119.272C66.2838 119.624 66.1638 120.04 66.0838 120.52C66.0198 121 65.9638 121.56 65.9158 122.2C65.8678 122.84 65.8438 123.552 65.8438 124.336ZM80.6466 133V115.432H87.4146C88.9986 115.432 90.1506 115.896 90.8706 116.824C91.6066 117.752 91.9746 118.808 91.9746 119.992C91.9746 122.12 91.2386 123.416 89.7666 123.88C90.3746 124.024 90.9106 124.456 91.3746 125.176C91.8386 125.88 92.0706 126.856 92.0706 128.104C92.0706 128.76 91.9986 129.368 91.8546 129.928C91.7106 130.472 91.4706 130.984 91.1346 131.464C90.7986 131.944 90.3106 132.32 89.6706 132.592C89.0466 132.864 88.2946 133 87.4146 133H80.6466ZM82.4466 131.224H87.4146C89.3346 131.224 90.2946 130.168 90.2946 128.056C90.2946 127.096 90.0546 126.296 89.5746 125.656C89.0946 125.016 88.3746 124.696 87.4146 124.696H82.4466V131.224ZM82.4466 122.92H87.4146C89.2706 122.92 90.1986 121.944 90.1986 119.992C90.1986 118.136 89.2706 117.208 87.4146 117.208H82.4466V122.92ZM94.1034 133L100.559 115.432H102.335L108.503 133H106.391L104.879 128.104H97.8714L96.2874 133H94.1034ZM98.5194 126.328H104.255L101.423 118.144L98.5194 126.328ZM111.022 133V115.432H112.846L122.206 129.688V115.432H123.982V133H122.206L112.822 118.744V133H111.022ZM126.494 115.432H128.438L132.974 124.648L137.99 115.432H139.934L133.862 126.76V133H132.086V126.76L126.494 115.432ZM141.611 133L148.067 115.432H149.843L156.011 133H153.899L152.387 128.104H145.379L143.795 133H141.611ZM146.027 126.328H151.763L148.931 118.144L146.027 126.328ZM166.334 129.976V115.432H168.11V129.976C168.11 130.152 168.126 130.304 168.158 130.432C168.19 130.56 168.222 130.672 168.254 130.768C168.302 130.848 168.366 130.92 168.446 130.984C168.526 131.048 168.598 131.096 168.662 131.128C168.742 131.16 168.838 131.184 168.95 131.2C169.062 131.216 169.15 131.224 169.214 131.224C169.294 131.224 169.398 131.224 169.526 131.224C169.526 131.224 169.534 131.224 169.55 131.224C169.566 131.224 169.582 131.224 169.598 131.224H176.942V133H169.598C169.134 133 168.734 132.968 168.398 132.904C168.062 132.84 167.726 132.712 167.39 132.52C167.054 132.328 166.79 132.016 166.598 131.584C166.422 131.152 166.334 130.616 166.334 129.976ZM178.853 133L185.309 115.432H187.085L193.253 133H191.141L189.629 128.104H182.621L181.037 133H178.853ZM183.269 126.328H189.005L186.173 118.144L183.269 126.328ZM195.172 124.12C195.172 122.792 195.244 121.648 195.388 120.688C195.532 119.712 195.796 118.792 196.18 117.928C196.564 117.048 197.14 116.384 197.908 115.936C198.676 115.472 199.636 115.24 200.788 115.24C201.412 115.24 202.372 115.312 203.668 115.456C204.98 115.584 206.052 115.728 206.884 115.888V117.304C206.868 117.304 206.716 117.296 206.428 117.28C206.156 117.264 205.796 117.24 205.348 117.208C204.916 117.176 204.444 117.144 203.932 117.112C203.42 117.08 202.876 117.056 202.3 117.04C201.74 117.024 201.236 117.016 200.788 117.016C199.268 117.016 198.244 117.568 197.716 118.672C197.204 119.76 196.948 121.592 196.948 124.168C196.948 126.84 197.236 128.704 197.812 129.76C198.388 130.816 199.412 131.352 200.884 131.368C200.9 131.368 200.916 131.368 200.932 131.368C201.284 131.368 201.676 131.336 202.108 131.272C202.54 131.192 202.948 131.096 203.332 130.984C203.716 130.872 204.076 130.76 204.412 130.648C204.748 130.536 205.012 130.448 205.204 130.384L205.492 130.264V125.464H201.46V124.264C202.916 123.864 204.308 123.664 205.636 123.664C206.148 123.664 206.692 123.688 207.268 123.736V133H205.924L205.54 131.824C203.972 132.688 202.42 133.12 200.884 133.12C200.852 133.12 200.82 133.12 200.788 133.12C199.844 133.12 199.028 132.968 198.34 132.664C197.652 132.344 197.108 131.936 196.708 131.44C196.308 130.928 195.988 130.272 195.748 129.472C195.508 128.656 195.348 127.84 195.268 127.024C195.204 126.208 195.172 125.24 195.172 124.12ZM210.514 133V115.432H212.29V133H210.514ZM222.011 117.064V115.744C222.219 115.712 222.603 115.664 223.163 115.6C223.723 115.52 224.083 115.472 224.243 115.456C224.403 115.44 224.747 115.408 225.275 115.36C225.819 115.296 226.171 115.264 226.331 115.264C226.507 115.264 226.891 115.256 227.483 115.24C228.075 115.208 228.507 115.216 228.779 115.264C230.475 115.264 231.691 115.68 232.427 116.512C233.179 117.328 233.555 118.392 233.555 119.704V122.128C233.555 123.68 233.011 124.768 231.923 125.392C230.851 126 229.451 126.168 227.723 125.896V128.32H225.923V124.432H229.331C230.003 124.4 230.579 124.192 231.059 123.808C231.555 123.424 231.803 122.864 231.803 122.128V119.704C231.803 118.776 231.547 118.104 231.035 117.688C230.523 117.272 229.683 117.064 228.515 117.064H222.011ZM225.611 132.448V131.08C225.611 130.68 225.803 130.48 226.187 130.48H227.507C227.875 130.48 228.059 130.68 228.059 131.08V132.448C228.059 132.816 227.875 133 227.507 133H226.187C225.803 133 225.611 132.816 225.611 132.448Z" fill="white"/>
</svg>
