<svg width="50" height="23" viewBox="0 0 50 23" fill="none" xmlns="http://www.w3.org/2000/svg">
<path d="M20.2979 2.16602L12.2412 13.416L11.8604 22.5859H4.91699L5.09277 13.4746L0.90332 2.60547L8.37402 1.66797L9.5459 7.99609L13.2666 1.66797L20.2979 2.16602ZM33.5693 0.876953C33.5107 1.79492 33.457 2.70312 33.4082 3.60156C33.3594 4.5 33.2959 5.4082 33.2178 6.32617L27.0068 6.64844L26.8604 8.49414H31.2256L30.9033 13.0352L26.5088 13.1816L26.3623 15.3203H29.9951H32.5732C32.5146 16.3945 32.4512 17.4639 32.3828 18.5283C32.3242 19.583 32.2705 20.6426 32.2217 21.707L19.5947 22L20.0635 0.876953H33.5693ZM49.082 14.207C49.082 15.5449 48.8477 16.7168 48.3789 17.7227C47.9199 18.7188 47.2852 19.5488 46.4746 20.2129C45.6738 20.877 44.7314 21.375 43.6475 21.707C42.5732 22.0391 41.416 22.2051 40.1758 22.2051C39.6973 22.2051 39.1699 22.1416 38.5938 22.0146C38.0273 21.8877 37.4512 21.7314 36.8652 21.5459C36.2793 21.3506 35.7129 21.1455 35.166 20.9307C34.6289 20.7061 34.1504 20.4961 33.7305 20.3008L34.375 14.2656C35.2051 14.7637 36.123 15.1445 37.1289 15.4082C38.1445 15.6621 39.1406 15.7891 40.1172 15.7891C40.3027 15.7891 40.5273 15.7842 40.791 15.7744C41.0547 15.7549 41.3037 15.7109 41.5381 15.6426C41.7822 15.5645 41.9873 15.4521 42.1533 15.3057C42.3193 15.1592 42.4023 14.9492 42.4023 14.6758C42.4023 14.4902 42.3438 14.334 42.2266 14.207C42.1094 14.0703 41.958 13.9629 41.7725 13.8848C41.5869 13.7969 41.377 13.7334 41.1426 13.6943C40.9082 13.6455 40.6787 13.6113 40.4541 13.5918C40.2295 13.5723 40.0195 13.5625 39.8242 13.5625C39.6289 13.5625 39.4727 13.5625 39.3555 13.5625C38.5156 13.5625 37.749 13.416 37.0557 13.123C36.3721 12.8301 35.7812 12.4248 35.2832 11.9072C34.7949 11.3799 34.4141 10.7598 34.1406 10.0469C33.8672 9.32422 33.7305 8.54297 33.7305 7.70312C33.7305 6.55078 33.96 5.52051 34.4189 4.6123C34.8877 3.69434 35.5078 2.91797 36.2793 2.2832C37.0605 1.63867 37.9541 1.14551 38.96 0.803711C39.9658 0.461914 41.0059 0.291016 42.0801 0.291016C42.5586 0.291016 43.0518 0.310547 43.5596 0.349609C44.0674 0.378906 44.5703 0.4375 45.0684 0.525391C45.5762 0.613281 46.0693 0.725586 46.5479 0.862305C47.0264 0.999023 47.4805 1.16992 47.9102 1.375L47.3535 7.32227C46.6895 7.09766 45.9912 6.91211 45.2588 6.76562C44.5361 6.60938 43.8281 6.53125 43.1348 6.53125C43.0078 6.53125 42.8418 6.53613 42.6367 6.5459C42.4414 6.5459 42.2314 6.56055 42.0068 6.58984C41.792 6.60938 41.5723 6.64355 41.3477 6.69238C41.123 6.74121 40.9229 6.80957 40.7471 6.89746C40.5713 6.97559 40.4297 7.08301 40.3223 7.21973C40.2148 7.35645 40.166 7.51758 40.1758 7.70312C40.1855 7.91797 40.2637 8.09375 40.4102 8.23047C40.5664 8.35742 40.7617 8.45996 40.9961 8.53809C41.2402 8.60645 41.5039 8.65527 41.7871 8.68457C42.0801 8.71387 42.3682 8.7334 42.6514 8.74316C42.9346 8.74316 43.1982 8.74316 43.4424 8.74316C43.6865 8.7334 43.8867 8.73828 44.043 8.75781C44.8242 8.80664 45.5273 8.97266 46.1523 9.25586C46.7773 9.53906 47.3047 9.91504 47.7344 10.3838C48.1738 10.8525 48.5059 11.4141 48.7305 12.0684C48.9648 12.7129 49.082 13.4258 49.082 14.207Z" fill="black"/>
</svg>
